<?xml version="1.0" encoding="UTF-8"?>
<svg xmlns="http://www.w3.org/2000/svg" width="1254" height="1254" viewBox="0 0 1254 1254" role="img" aria-label="EN US">
  <defs>
    <linearGradient id="bg" x1="0" y1="0" x2="1" y2="1">
      <stop offset="0" stop-color="#32c7f1"/>
      <stop offset="0.45" stop-color="#1588f8"/>
      <stop offset="1" stop-color="#1033e7"/>
    </linearGradient>
    <linearGradient id="wave" x1="0" y1="0" x2="1" y2="1">
      <stop offset="0" stop-color="#63dff8" stop-opacity=".75"/>
      <stop offset="1" stop-color="#2057ef" stop-opacity=".15"/>
    </linearGradient>
  </defs>
  <rect x="28" y="28" width="1198" height="1198" rx="240" fill="url(#bg)"/>
  <path d="M28 408C238 195 459 292 690 157c127-75 207-151 291-129h245v409c-159-111-318-169-484-141C474 341 283 511 28 699Z" fill="url(#wave)"/>
  <path d="M28 706c210 230 465 343 742 287 161-33 302-113 456-75v308H326C180 1226 65 1154 28 1010Z" fill="#1544ef" opacity=".5"/>
  <text x="627" y="602" text-anchor="middle" font-family="Arial, Helvetica, sans-serif" font-size="300" font-weight="700" fill="#fff">EN</text>
  <text x="627" y="922" text-anchor="middle" font-family="Arial, Helvetica, sans-serif" font-size="300" font-weight="700" fill="#fff">US</text>
</svg>
